<svg xmlns="http://www.w3.org/2000/svg" width="38.951" height="38.951" viewBox="0 0 38.951 38.951">
  <g id="Icon_ionic-ios-image" data-name="Icon ionic-ios-image" transform="translate(-3.375 -3.375)">
    <path id="Path_5" data-name="Path 5" d="M8.048,25.8H25.9a.521.521,0,0,0,.421-.824L17.393,10.61a.516.516,0,0,0-.852,0L7.617,24.973A.525.525,0,0,0,8.048,25.8Z" transform="translate(1.376 2.325)"/>
    <path id="Path_6" data-name="Path 6" d="M21.588,18.832l3.277,5.215a.507.507,0,0,0,.421.225h4.981a.521.521,0,0,0,.421-.824l-5.768-8.212a.516.516,0,0,0-.852,0l-2.491,3.006A.54.54,0,0,0,21.588,18.832Z" transform="translate(6.01 3.859)"/>
    <path id="Path_7" data-name="Path 7" d="M25.406,13.108a2.621,2.621,0,1,0-2.875-2.875A2.631,2.631,0,0,0,25.406,13.108Z" transform="translate(6.349 1.494)"/>
    <path id="Path_8" data-name="Path 8" d="M39.33,3.375H6.371a2.993,2.993,0,0,0-3,3V39.33a2.993,2.993,0,0,0,3,3H39.33a2.993,2.993,0,0,0,3-3V6.371A2.993,2.993,0,0,0,39.33,3.375Zm-.253,26.217a.751.751,0,0,1-.749.749H7.373a.751.751,0,0,1-.749-.749V7.373a.751.751,0,0,1,.749-.749H38.337a.751.751,0,0,1,.749.749V29.592Z"/>
  </g>
</svg>
