<svg xmlns="http://www.w3.org/2000/svg" width="72.415" height="72.799" viewBox="0 0 72.415 72.799">
  <path id="Icon_simple-github" data-name="Icon simple-github" d="M36.208.446C16.2.446,0,17.157,0,37.769A37.233,37.233,0,0,0,24.757,73.18c1.81.351,2.474-.8,2.474-1.795,0-.886-.03-3.235-.045-6.345-10.072,2.252-12.2-5.008-12.2-5.008-1.647-4.308-4.028-5.459-4.028-5.459-3.28-2.314.253-2.267.253-2.267,3.636.261,5.546,3.844,5.546,3.844,3.229,5.707,8.476,4.059,10.545,3.1A8.052,8.052,0,0,1,29.6,54.263c-8.041-.933-16.493-4.143-16.493-18.444A14.648,14.648,0,0,1,16.833,25.8c-.407-.942-1.629-4.737.317-9.878,0,0,3.032-1,9.957,3.826a33.153,33.153,0,0,1,18.1,0c6.879-4.827,9.912-3.826,9.912-3.826a14.029,14.029,0,0,1,.362,9.878A14.709,14.709,0,0,1,59.2,35.819c0,14.339-8.464,17.5-16.52,18.413,1.267,1.12,2.444,3.409,2.444,6.9,0,5-.045,9.007-.045,10.22,0,.98.634,2.146,2.489,1.773a37.1,37.1,0,0,0,24.85-35.361C72.415,17.157,56.2.445,36.208.445" transform="translate(0 -0.445)" fill="#fff"/>
</svg>
