<svg xmlns="http://www.w3.org/2000/svg" width="41.926" height="39.549" viewBox="0 0 41.926 39.549">
  <path id="Icon_ionic-md-arrow-round-back" data-name="Icon ionic-md-arrow-round-back" d="M43.917,22.292h-25.5l9.889-9.46a3.941,3.941,0,0,0,0-5.385,3.523,3.523,0,0,0-5.147,0L6.7,23.412A3.629,3.629,0,0,0,5.625,26.08v.048A3.629,3.629,0,0,0,6.7,28.8L23.151,44.762a3.523,3.523,0,0,0,5.147,0,3.941,3.941,0,0,0,0-5.385l-9.889-9.46h25.5A3.73,3.73,0,0,0,47.551,26.1,3.69,3.69,0,0,0,43.917,22.292Z" transform="translate(-5.625 -6.33)" fill="#fff"/>
</svg>
