<svg xmlns="http://www.w3.org/2000/svg" width="78.997" height="54.969" viewBox="0 0 78.997 54.969">
  <path id="Icon_zocial-email" data-name="Icon zocial-email" d="M.072,54.168V8.937q0-.079.229-1.492L26.125,30.217.377,55.739a6.838,6.838,0,0,1-.3-1.571ZM3.5,4.3a3.2,3.2,0,0,1,1.3-.236H74.346a4.2,4.2,0,0,1,1.371.236l-25.9,22.851-3.428,2.827-6.78,5.732-6.78-5.732L29.4,27.155Zm.076,54.5L29.553,33.123l10.056,8.4,10.056-8.4L75.641,58.8a3.56,3.56,0,0,1-1.3.236H4.8A3.359,3.359,0,0,1,3.576,58.8ZM53.092,30.217,78.84,7.445a4.819,4.819,0,0,1,.229,1.492V54.168a6.191,6.191,0,0,1-.229,1.571Z" transform="translate(-0.072 -4.068)"/>
</svg>
