<svg xmlns="http://www.w3.org/2000/svg" width="71.142" height="73.335" viewBox="0 0 71.142 73.335">
  <path id="Icon_simple-linkedin" data-name="Icon simple-linkedin" d="M60.61,62.493H50.075V45.477c0-4.058-.08-9.28-5.49-9.28-5.493,0-6.332,4.415-6.332,8.98V62.493H27.719V27.5h10.12v4.77h.136a11.047,11.047,0,0,1,9.989-5.653c10.674,0,12.648,7.242,12.648,16.668V62.493ZM15.82,22.712A6.209,6.209,0,0,1,9.7,16.4a6.207,6.207,0,0,1,6.115-6.3,6.216,6.216,0,0,1,6.118,6.3A6.221,6.221,0,0,1,15.82,22.712ZM21.1,62.493H10.538V27.5H21.1ZM65.88,0H5.25A5.265,5.265,0,0,0,0,5.283V68.052a5.263,5.263,0,0,0,5.25,5.283H65.871a5.282,5.282,0,0,0,5.27-5.283V5.283A5.284,5.284,0,0,0,65.871,0Z" fill="#fff"/>
</svg>
